<?xml version="1.0" encoding="UTF-8" standalone="no"?>
<svg
   xmlns:dc="http://purl.org/dc/elements/1.1/"
   xmlns:cc="http://creativecommons.org/ns#"
   xmlns:rdf="http://www.w3.org/1999/02/22-rdf-syntax-ns#"
   xmlns:svg="http://www.w3.org/2000/svg"
   xmlns="http://www.w3.org/2000/svg"
   xmlns:sodipodi="http://sodipodi.sourceforge.net/DTD/sodipodi-0.dtd"
   xmlns:inkscape="http://www.inkscape.org/namespaces/inkscape"
   width="21px"
   height="18px"
   viewBox="0 0 21 18"
   version="1.1"
   id="svg18"
   sodipodi:docname="arrow-left.svg"
   inkscape:version="1.0.2 (e86c8708, 2021-01-15)">
  <metadata
     id="metadata24">
    <rdf:RDF>
      <cc:Work
         rdf:about="">
        <dc:format>image/svg+xml</dc:format>
        <dc:type
           rdf:resource="http://purl.org/dc/dcmitype/StillImage" />
        <dc:title>arrow copy</dc:title>
      </cc:Work>
    </rdf:RDF>
  </metadata>
  <defs
     id="defs22" />
  <sodipodi:namedview
     pagecolor="#ffffff"
     bordercolor="#666666"
     borderopacity="1"
     objecttolerance="10"
     gridtolerance="10"
     guidetolerance="10"
     inkscape:pageopacity="0"
     inkscape:pageshadow="2"
     inkscape:window-width="1912"
     inkscape:window-height="978"
     id="namedview20"
     showgrid="false"
     inkscape:zoom="46.388889"
     inkscape:cx="10.5"
     inkscape:cy="9"
     inkscape:window-x="0"
     inkscape:window-y="23"
     inkscape:window-maximized="0"
     inkscape:current-layer="Page-1" />
  <!-- Generator: Sketch 54.1 (76490) - https://sketchapp.com -->
  <title
     id="title10">arrow copy</title>
  <desc
     id="desc12">Created with Sketch.</desc>
  <g
     id="Page-1"
     stroke="none"
     stroke-width="1"
     fill="none"
     fill-rule="evenodd">
    <g
       id="HOME"
       transform="rotate(180,649.5,221.5)"
       fill="#FFFFFF"
       fill-rule="nonzero"
       style="fill:#ffffff">
      <g
         id="arrow-copy"
         transform="matrix(-1,0,0,1,1299,425)"
         style="fill:#ffffff">
        <path
           d="M 20.125,8.1001207 H 2.6691875 L 9.3533125,1.5518005 C 9.7033125,1.2089047 9.716875,0.6392116 9.3835,0.27921599 9.0505625,-0.08032963 8.4966875,-0.09472946 8.14625,0.24816637 L 0.51275,7.7270752 C 0.1824375,8.0672711 0,8.5190656 0,9.0001097 0,9.4807038 0.1824375,9.9329483 0.5280625,10.287994 l 7.618625,7.463609 C 8.316,17.917651 8.533,18 8.75,18 8.981,18 9.212,17.906401 9.3839375,17.720553 9.7173125,17.360558 9.70375,16.791315 9.35375,16.448419 L 2.641625,9.9000987 H 20.125 c 0.483,0 0.875,-0.4031951 0.875,-0.899989 0,-0.4967939 -0.392,-0.899989 -0.875,-0.899989 z"
           id="Path"
           style="fill:#ffffff" />
      </g>
    </g>
  </g>
</svg>
